<svg width="10" height="10" viewBox="0 0 10 10" fill="none" xmlns="http://www.w3.org/2000/svg">
<path d="M9.6673 2.29093C9.46768 2.08181 9.19202 1.95823 8.87833 1.95823H7.30038V1.93922C7.30038 1.70158 7.20532 1.47344 7.04373 1.32135C6.88213 1.15975 6.6635 1.0647 6.42586 1.0647H3.57414C3.327 1.0647 3.10837 1.15975 2.94677 1.32135C2.78517 1.48295 2.69011 1.70158 2.69011 1.93922V1.95823H1.12167C0.807985 1.95823 0.532319 2.08181 0.3327 2.29093C0.13308 2.49055 0 2.77572 0 3.07991V7.81375C0 8.12744 0.123574 8.4031 0.3327 8.60272C0.532319 8.80234 0.817491 8.93542 1.12167 8.93542H8.87833C9.19202 8.93542 9.46768 8.81185 9.6673 8.60272C9.86692 8.4031 10 8.11793 10 7.81375V3.07991C10 2.76622 9.87643 2.49055 9.6673 2.29093ZM9.5057 7.81375H9.4962C9.4962 7.98485 9.42966 8.13694 9.31559 8.25101C9.20152 8.36508 9.04943 8.43162 8.87833 8.43162H1.12167C0.95057 8.43162 0.798479 8.36508 0.684411 8.25101C0.570342 8.13694 0.503802 7.98485 0.503802 7.81375V3.07991C0.503802 2.9088 0.570342 2.75671 0.684411 2.64264C0.798479 2.52858 0.95057 2.46204 1.12167 2.46204H2.95627C3.09886 2.46204 3.21293 2.34797 3.21293 2.20538V1.92972C3.21293 1.82515 3.25095 1.7301 3.31749 1.66356C3.38403 1.59702 3.47909 1.55899 3.58365 1.55899H6.42586C6.53042 1.55899 6.62548 1.59702 6.69202 1.66356C6.75856 1.7301 6.79658 1.82515 6.79658 1.92972V2.20538C6.79658 2.34797 6.91065 2.46204 7.05323 2.46204H8.88783C9.05894 2.46204 9.21103 2.52858 9.3251 2.64264C9.43916 2.75671 9.5057 2.9088 9.5057 3.07991V7.81375Z" fill="#1D4ED8"/>
<path d="M5.00002 3.1084C4.35364 3.1084 3.76428 3.37456 3.34603 3.79281C2.91828 4.22057 2.66162 4.80041 2.66162 5.4468C2.66162 6.09319 2.92778 6.68254 3.34603 7.10079C3.77379 7.52855 4.35364 7.7852 5.00002 7.7852C5.64641 7.7852 6.23577 7.51904 6.65402 7.10079C7.08177 6.67304 7.33843 6.09319 7.33843 5.4468C7.33843 4.80041 7.07227 4.21106 6.65402 3.79281C6.23577 3.37456 5.64641 3.1084 5.00002 3.1084ZM6.2928 6.74908C5.9601 7.07228 5.50383 7.2814 5.00002 7.2814C4.49622 7.2814 4.03995 7.07228 3.70725 6.74908C3.37455 6.41638 3.17493 5.96011 3.17493 5.45631C3.17493 4.9525 3.38405 4.49623 3.70725 4.16353C4.03995 3.83083 4.49622 3.63121 5.00002 3.63121C5.50383 3.63121 5.9601 3.84034 6.2928 4.16353C6.6255 4.49623 6.82512 4.9525 6.82512 5.45631C6.83463 5.96011 6.6255 6.41638 6.2928 6.74908Z" fill="#1D4ED8"/>
<path d="M8.38424 4.03044C8.64148 4.03044 8.85002 3.8219 8.85002 3.56466C8.85002 3.30741 8.64148 3.09888 8.38424 3.09888C8.12699 3.09888 7.91846 3.30741 7.91846 3.56466C7.91846 3.8219 8.12699 4.03044 8.38424 4.03044Z" fill="#1D4ED8"/>
</svg>
