<svg width="10" height="10" viewBox="0 0 10 10" fill="none" xmlns="http://www.w3.org/2000/svg">
<g clip-path="url(#clip0_2156_23461)">
<path d="M8.53555 1.46445C7.59115 0.520098 6.33555 0 5 0C3.66445 0 2.40885 0.520098 1.46445 1.46445C0.520098 2.40885 0 3.66445 0 5C0 6.33555 0.520098 7.59115 1.46445 8.53555C2.40885 9.4799 3.66445 10 5 10C6.33555 10 7.59115 9.4799 8.53555 8.53555C9.4799 7.59115 10 6.33555 10 5C10 3.66445 9.4799 2.40885 8.53555 1.46445ZM8.32838 8.32838C7.43934 9.21742 6.2573 9.70703 5 9.70703C3.7427 9.70703 2.56066 9.21742 1.67162 8.32838C0.782578 7.43934 0.292969 6.2573 0.292969 5C0.292969 3.7427 0.782578 2.56066 1.67162 1.67162C2.56066 0.782578 3.7427 0.292969 5 0.292969C6.2573 0.292969 7.43934 0.782578 8.32838 1.67162C9.21742 2.56066 9.70703 3.7427 9.70703 5C9.70703 6.2573 9.21742 7.43934 8.32838 8.32838Z" fill="#1D4ED8"/>
<path d="M5 1.56567C4.9191 1.56567 4.85352 1.63126 4.85352 1.71216V2.33841C4.85352 2.41931 4.9191 2.48489 5 2.48489C5.0809 2.48489 5.14648 2.41933 5.14648 2.33843V1.71216C5.14648 1.63126 5.0809 1.56567 5 1.56567Z" fill="#1D4ED8"/>
<path d="M5 7.51514C4.9191 7.51514 4.85352 7.58072 4.85352 7.66162V8.28787C4.85352 8.36877 4.9191 8.43436 5 8.43436C5.0809 8.43436 5.14648 8.36877 5.14648 8.28787V7.66162C5.14648 7.58072 5.0809 7.51514 5 7.51514Z" fill="#1D4ED8"/>
<path d="M8.28787 4.85352H7.66162C7.58072 4.85352 7.51514 4.9191 7.51514 5C7.51514 5.0809 7.58072 5.14648 7.66162 5.14648H8.28787C8.36877 5.14648 8.43436 5.0809 8.43436 5C8.43436 4.9191 8.36877 4.85352 8.28787 4.85352Z" fill="#1D4ED8"/>
<path d="M2.33816 4.85352H1.71191C1.63102 4.85352 1.56543 4.9191 1.56543 5C1.56543 5.0809 1.63102 5.14648 1.71191 5.14648H2.33816C2.41906 5.14648 2.48465 5.0809 2.48465 5C2.48465 4.9191 2.41906 4.85352 2.33816 4.85352Z" fill="#1D4ED8"/>
<path d="M2.49727 3.38582L2.22609 3.22925C2.15602 3.18878 2.06645 3.21281 2.026 3.28287C1.98555 3.35292 2.00955 3.44251 2.07961 3.48296L2.35078 3.63953C2.37385 3.65285 2.39904 3.65917 2.42389 3.65917C2.47451 3.65917 2.52375 3.63289 2.55088 3.58591C2.59133 3.51585 2.56732 3.42626 2.49727 3.38582Z" fill="#1D4ED8"/>
<path d="M7.92061 6.51704L7.64943 6.36048C7.57938 6.32001 7.48979 6.34403 7.44934 6.41409C7.40889 6.48415 7.43289 6.57374 7.50295 6.61419L7.77412 6.77075C7.79719 6.78407 7.82238 6.7904 7.84723 6.7904C7.89785 6.7904 7.94709 6.76411 7.97422 6.71714C8.01467 6.64708 7.99066 6.55749 7.92061 6.51704Z" fill="#1D4ED8"/>
<path d="M6.71713 2.02576C6.64707 1.98529 6.55748 2.00932 6.51703 2.07937L6.36047 2.35055C6.32002 2.42061 6.34402 2.51019 6.41408 2.55064C6.43715 2.56396 6.46234 2.57029 6.48719 2.57029C6.53781 2.57029 6.58705 2.544 6.61418 2.49703L6.77074 2.22586C6.81119 2.1558 6.78719 2.06621 6.71713 2.02576Z" fill="#1D4ED8"/>
<path d="M3.58578 7.44935C3.5157 7.40888 3.42611 7.4329 3.38568 7.50296L3.22912 7.77413C3.18867 7.84419 3.21268 7.93378 3.28274 7.97423C3.3058 7.98755 3.331 7.99388 3.35584 7.99388C3.40647 7.99388 3.4557 7.96759 3.48283 7.92061L3.6394 7.64944C3.67984 7.57938 3.65584 7.48979 3.58578 7.44935Z" fill="#1D4ED8"/>
<path d="M7.97422 3.28286C7.93377 3.2128 7.84416 3.18879 7.77412 3.22924L7.50295 3.38581C7.43289 3.42626 7.40889 3.51585 7.44934 3.5859C7.47647 3.6329 7.5257 3.65917 7.57633 3.65917C7.60117 3.65917 7.62637 3.65284 7.64943 3.63952L7.92061 3.48295C7.99066 3.44251 8.01467 3.35292 7.97422 3.28286Z" fill="#1D4ED8"/>
<path d="M2.55088 6.4141C2.51043 6.34402 2.42084 6.32001 2.35078 6.36048L2.07961 6.51705C2.00955 6.55749 1.98555 6.64708 2.026 6.71714C2.05313 6.76413 2.10236 6.7904 2.15299 6.7904C2.17783 6.7904 2.20303 6.78408 2.22609 6.77076L2.49727 6.61419C2.56732 6.57376 2.59133 6.48417 2.55088 6.4141Z" fill="#1D4ED8"/>
<path d="M3.6394 2.35055L3.48283 2.07938C3.44238 2.0093 3.35279 1.9853 3.28274 2.02577C3.21268 2.06621 3.18867 2.1558 3.22912 2.22586L3.38568 2.49704C3.41281 2.54403 3.46205 2.5703 3.51268 2.5703C3.53752 2.5703 3.56272 2.56397 3.58578 2.55065C3.65584 2.5102 3.67984 2.42061 3.6394 2.35055Z" fill="#1D4ED8"/>
<path d="M6.77074 7.77413L6.61418 7.50296C6.57375 7.4329 6.48414 7.40888 6.41408 7.44935C6.34402 7.48979 6.32002 7.57938 6.36047 7.64944L6.51703 7.92061C6.54416 7.96761 6.5934 7.99388 6.64402 7.99388C6.66887 7.99388 6.69406 7.98755 6.71713 7.97423C6.78719 7.93378 6.81119 7.84419 6.77074 7.77413Z" fill="#1D4ED8"/>
<path d="M7.17996 4.66457C7.16767 4.58463 7.09302 4.52977 7.01291 4.54207L5.40796 4.78898C5.33138 4.64145 5.17724 4.54037 4.99986 4.54037C4.92648 4.54037 4.8571 4.55775 4.7955 4.58848L3.22466 3.01764C3.16746 2.96043 3.0747 2.96043 3.01751 3.01764C2.96031 3.07484 2.96031 3.1676 3.01751 3.22479L4.58835 4.79563C4.55763 4.85723 4.54025 4.9266 4.54025 4.99998C4.54025 5.25342 4.74644 5.45959 4.99986 5.45959C5.2265 5.45959 5.41523 5.29465 5.45261 5.07854L7.05748 4.83164C7.13742 4.81932 7.19226 4.74453 7.17996 4.66457ZM4.99984 5.16662C4.90794 5.16662 4.8332 5.09186 4.8332 4.99998C4.8332 4.90811 4.90796 4.83334 4.99984 4.83334C5.09171 4.83334 5.16648 4.90811 5.16648 4.99998C5.16648 5.09186 5.09173 5.16662 4.99984 5.16662Z" fill="#1D4ED8"/>
<path d="M7.63172 1.90904C6.85711 1.24818 5.8684 0.904917 4.8476 0.942769C3.8211 0.980718 2.85549 1.40191 2.12869 2.12871C1.4019 2.8555 0.980705 3.82111 0.942756 4.84761C0.905002 5.86837 1.24817 6.85714 1.90903 7.63173C1.93799 7.6657 1.97912 7.68314 2.02053 7.68314C2.05416 7.68314 2.08795 7.67164 2.11553 7.6481C2.17707 7.5956 2.1844 7.50314 2.1319 7.4416C1.51883 6.723 1.20047 5.80564 1.23551 4.85843C1.27072 3.90607 1.66151 3.01021 2.33584 2.33585C3.01018 1.6615 3.90606 1.27074 4.85842 1.23552C5.80569 1.2005 6.72299 1.51884 7.44158 2.13191C7.50311 2.18441 7.59559 2.17709 7.64809 2.11554C7.70059 2.054 7.69326 1.96154 7.63172 1.90904Z" fill="#1D4ED8"/>
<path d="M8.091 2.36819C8.0385 2.30665 7.94604 2.2993 7.8845 2.35182C7.82295 2.40432 7.81563 2.49678 7.86813 2.55833C8.4812 3.27692 8.79954 4.1943 8.76452 5.14149C8.7293 6.09385 8.33852 6.98971 7.66418 7.66407C6.98985 8.33843 6.09397 8.72919 5.14161 8.7644C4.1945 8.79946 3.27704 8.4811 2.55844 7.86801C2.49692 7.81551 2.40444 7.82284 2.35194 7.88438C2.29944 7.94593 2.30676 8.03839 2.3683 8.09089C3.10438 8.71887 4.03379 9.05997 5.00034 9.05997C5.05092 9.05997 5.10166 9.05903 5.15245 9.05716C6.17895 9.01921 7.14455 8.59801 7.87135 7.87122C8.59815 7.14442 9.01934 6.17882 9.05729 5.15231C9.09502 4.13157 8.75186 3.1428 8.091 2.36819Z" fill="#1D4ED8"/>
</g>
<defs>
<clipPath id="clip0_2156_23461">
<rect width="10" height="10" fill="white"/>
</clipPath>
</defs>
</svg>
