<svg width="10" height="10" viewBox="0 0 10 10" fill="none" xmlns="http://www.w3.org/2000/svg">
<g clip-path="url(#clip0_2156_23510)">
<mask id="mask0_2156_23510" style="mask-type:luminance" maskUnits="userSpaceOnUse" x="0" y="0" width="10" height="10">
<path d="M9.75 0.25V9.75H0.25V0.25H9.75Z" fill="white" stroke="white" stroke-width="0.5"/>
</mask>
<g mask="url(#mask0_2156_23510)">
<path d="M3.06843 1.68788L2.98539 1.77092C2.0821 2.67421 1.97914 4.10374 2.74365 5.12716L4.71519 7.69592C4.84073 7.85949 5.08749 7.85878 5.21209 7.69448L7.16434 5.1201C7.93278 4.09279 7.82982 2.65697 6.92267 1.74981L6.86073 1.68788C5.81351 0.640661 4.11565 0.640663 3.06843 1.68788Z" stroke="#1D4ED8" stroke-width="0.5"/>
<path d="M4.94792 4.63546C5.52321 4.63546 5.98958 4.16909 5.98958 3.59379C5.98958 3.01849 5.52321 2.55212 4.94792 2.55212C4.37262 2.55212 3.90625 3.01849 3.90625 3.59379C3.90625 4.16909 4.37262 4.63546 4.94792 4.63546Z" stroke="#1D4ED8" stroke-width="0.5"/>
<path d="M2.55208 7.05652C1.75535 7.25453 1.25 7.54948 1.25 7.87887C1.25 8.47509 2.90561 8.95842 4.94792 8.95842C6.99022 8.95842 8.64583 8.47509 8.64583 7.87887C8.64583 7.54948 8.14048 7.25453 7.34375 7.05652" stroke="#1D4ED8" stroke-width="0.5" stroke-linecap="round"/>
</g>
</g>
<defs>
<clipPath id="clip0_2156_23510">
<rect width="10" height="10" fill="white"/>
</clipPath>
</defs>
</svg>
