<svg width="12" height="12" viewBox="0 0 12 12" fill="none" xmlns="http://www.w3.org/2000/svg">
<path d="M11.102 2.89423L9.1058 0.897828C8.9986 0.795573 8.85614 0.738525 8.708 0.738525C8.55985 0.738525 8.4174 0.795573 8.3102 0.897828L0.897544 8.31049C0.792704 8.4163 0.733887 8.55923 0.733887 8.70819C0.733887 8.85715 0.792704 9.00008 0.897544 9.1059L2.89376 11.1023C2.99962 11.2071 3.14258 11.2659 3.29156 11.2659C3.44054 11.2659 3.58349 11.2071 3.68935 11.1023L11.102 3.68964C11.2068 3.58382 11.2657 3.44089 11.2657 3.29193C11.2657 3.14298 11.2068 3.00004 11.102 2.89423ZM10.8369 3.4245L3.42422 10.8372C3.38854 10.8713 3.34105 10.8904 3.29165 10.8904C3.24225 10.8904 3.19475 10.8713 3.15908 10.8372L1.16268 8.84058C1.12774 8.80534 1.10813 8.75772 1.10813 8.7081C1.10813 8.65847 1.12774 8.61086 1.16268 8.57562L1.68105 8.05725L2.60079 8.977C2.63617 9.01109 2.68351 9.02993 2.73264 9.02947C2.78177 9.02901 2.82875 9.00929 2.86349 8.97455C2.89823 8.93981 2.91794 8.89283 2.9184 8.8437C2.91885 8.79457 2.90001 8.74723 2.86592 8.71185L1.94618 7.79212L2.55407 7.18424L3.09646 7.72675C3.13162 7.76191 3.1793 7.78166 3.22903 7.78166C3.27875 7.78166 3.32644 7.76191 3.36159 7.72675C3.39675 7.69159 3.41651 7.6439 3.41651 7.59418C3.41651 7.54446 3.39675 7.49677 3.36159 7.46161L2.81922 6.91909L3.42696 6.31134L4.3467 7.23108C4.38209 7.26514 4.42942 7.28395 4.47853 7.28348C4.52764 7.28301 4.57461 7.26329 4.60933 7.22856C4.64406 7.19383 4.66377 7.14687 4.66424 7.09776C4.66471 7.04865 4.64589 7.00132 4.61183 6.96593L3.6921 6.0462L4.30001 5.43829L4.84237 5.98065C4.87775 6.0147 4.92508 6.0335 4.97419 6.03303C5.02329 6.03255 5.07025 6.01284 5.10497 5.97811C5.13969 5.94339 5.15941 5.89643 5.15988 5.84732C5.16035 5.79822 5.14154 5.75089 5.10749 5.71551L4.56514 5.17316L5.17287 4.56543L6.09261 5.48517C6.128 5.5192 6.17532 5.53799 6.22442 5.5375C6.27351 5.53702 6.32045 5.5173 6.35517 5.48259C6.38988 5.44787 6.4096 5.40092 6.41008 5.35183C6.41056 5.30273 6.39176 5.25541 6.35773 5.22002L5.438 4.30029L6.04591 3.69238L6.58828 4.23475C6.62368 4.26874 6.67099 4.28749 6.72006 4.28699C6.76913 4.2865 6.81605 4.26678 6.85075 4.23208C6.88545 4.19738 6.90516 4.15045 6.90566 4.10138C6.90615 4.05231 6.88739 4.005 6.8534 3.9696L6.31106 3.42725L6.91878 2.81953L7.83852 3.73926C7.87392 3.77323 7.92123 3.79196 7.97028 3.79145C8.01934 3.79094 8.06624 3.77122 8.10093 3.73653C8.13562 3.70184 8.15533 3.65494 8.15584 3.60588C8.15635 3.55682 8.13761 3.50952 8.10365 3.47412L7.18392 2.55439L7.79183 1.94648L8.33419 2.48884C8.36935 2.524 8.41703 2.54375 8.46675 2.54375C8.51648 2.54375 8.56416 2.524 8.59932 2.48884C8.63448 2.45368 8.65423 2.40599 8.65423 2.35627C8.65423 2.30655 8.63448 2.25886 8.59932 2.2237L8.05697 1.68134L8.57534 1.16296C8.59274 1.14555 8.61341 1.13173 8.63616 1.12231C8.6589 1.11288 8.68329 1.10803 8.70791 1.10803C8.73253 1.10803 8.75691 1.11288 8.77966 1.12231C8.8024 1.13173 8.82307 1.14555 8.84048 1.16296L10.8369 3.15955C10.8718 3.19479 10.8914 3.2424 10.8914 3.29202C10.8914 3.34165 10.8718 3.38926 10.8369 3.4245Z" fill="#1D4ED8"/>
</svg>
